<svg width="149.009375px" height="84.8px" xmlns="http://www.w3.org/2000/svg" viewBox="175.4953125 32.6 149.009375 84.8" style="background: rgba(0, 0, 0, 0);" preserveAspectRatio="xMidYMid"><defs><filter id="editing-extrude-glow"><feFlood flood-color="#333333" result="flood-1"></feFlood><feMorphology operator="erode" radius="1" in="SourceAlpha" result="erode"></feMorphology><feComposite operator="in" in="flood-1" in2="erode" result="comp1"></feComposite><feConvolveMatrix order="3,3" divisor="1" in="comp1" result="convolve" kernelMatrix="0 0 0 1 1 1 0 0 0"></feConvolveMatrix><feOffset dx="-3" dy="0" in="convolve" result="extrude"></feOffset><feComposite operator="in" in="flood-1" in2="extrude" result="comp-extrude"></feComposite><feFlood flood-color="#000000" result="flood-2"></feFlood><feComposite operator="in" in="flood-2" in2="SourceAlpha" result="comp2"></feComposite><feMorphology operator="dilate" radius="1" in="comp2" result="dilate"></feMorphology><feOffset dx="-4.5" dy="0" in="dilate" result="offset"></feOffset><feGaussianBlur in="offset" stdDeviation="5.8" result="blur"></feGaussianBlur><feComponentTransfer in="blur" result="shadow"><feFuncA type="linear" slope="0.8" intercept="-0.2"></feFuncA></feComponentTransfer><feMerge><feMergeNode in="shadow"></feMergeNode><feMergeNode in="comp-extrude"></feMergeNode><feMergeNode in="SourceGraphic"></feMergeNode></feMerge></filter></defs><g filter="url(#editing-extrude-glow)"><g transform="translate(175.50500214099884, 97.46500015258789)"><path d="M26.05-29.57L26.05-29.57L26.05-29.57Q27.01-31.49 27.01-33.28L27.01-33.28L27.01-33.28Q27.01-35.07 26.82-36.06L26.82-36.06L26.82-36.06Q26.62-37.06 26.18-37.82L26.18-37.82L26.18-37.82Q25.22-39.49 23.30-39.49L23.30-39.49L23.30-39.49Q20.93-39.49 19.01-37.76L19.01-37.76L19.01-37.76Q16.96-35.97 16.96-33.15L16.96-33.15L16.96-33.15Q16.96-31.36 18.21-29.98L18.21-29.98L18.21-29.98Q19.46-28.61 21.38-27.33L21.38-27.33L21.38-27.33Q23.30-26.05 25.47-24.77L25.47-24.77L25.47-24.77Q27.65-23.49 29.57-21.95L29.57-21.95L29.57-21.95Q33.98-18.43 33.98-13.70L33.98-13.70L33.98-13.70Q33.98-10.50 32.29-7.78L32.29-7.78L32.29-7.78Q30.59-5.06 27.78-3.07L27.78-3.07L27.78-3.07Q21.63 1.28 13.50 1.28L13.50 1.28L13.50 1.28Q6.91 1.28 3.52-0.86L3.52-0.86L3.52-0.86Q0.13-3.01 0.13-6.27L0.13-6.27L0.13-6.27Q0.13-12.10 4.67-13.57L4.67-13.57L4.67-13.57Q5.95-14.02 7.90-14.02L7.90-14.02L7.90-14.02Q9.86-14.02 12.10-13.18L12.10-13.18L12.10-13.18Q11.07-10.56 11.07-8.19L11.07-8.19L11.07-8.19Q11.07-3.07 14.72-3.07L14.72-3.07L14.72-3.07Q17.09-3.07 19.04-4.80L19.04-4.80L19.04-4.80Q20.99-6.53 20.99-8.48L20.99-8.48L20.99-8.48Q20.99-10.43 19.74-11.84L19.74-11.84L19.74-11.84Q18.50-13.25 16.64-14.37L16.64-14.37L16.64-14.37Q14.78-15.49 12.64-16.58L12.64-16.58L12.64-16.58Q10.50-17.66 8.64-19.20L8.64-19.20L8.64-19.20Q4.29-22.72 4.29-28.35L4.29-28.35L4.29-28.35Q4.29-32 6.08-34.85L6.08-34.85L6.08-34.85Q7.87-37.70 10.75-39.62L10.75-39.62L10.75-39.62Q16.51-43.52 23.58-43.52L23.58-43.52L23.58-43.52Q30.66-43.52 34.08-41.41L34.08-41.41L34.08-41.41Q37.50-39.30 37.50-35.71L37.50-35.71L37.50-35.71Q37.50-32.58 35.07-30.59L35.07-30.59L35.07-30.59Q32.96-28.93 30.40-28.93L30.40-28.93L30.40-28.93Q27.84-28.93 26.05-29.57ZM70.27-26.62L70.27-26.62L70.27-26.62Q70.27-23.94 68.03-22.27L68.03-22.27L68.03-22.27Q65.79-20.61 62.14-20.61L62.14-20.61L62.14-20.61Q60.61-20.61 59.71-21.06L59.71-21.06L59.71-21.06Q60.42-22.72 60.64-24.80L60.64-24.80L60.64-24.80Q60.86-26.88 60.86-27.46L60.86-27.46L60.86-27.46Q60.86-30.14 59.01-30.14L59.01-30.14L59.01-30.14Q57.73-30.14 56.29-28.54L56.29-28.54L56.29-28.54Q54.85-26.94 53.63-24.45L53.63-24.45L53.63-24.45Q50.94-18.69 50.94-12.86L50.94-12.86L50.94-12.86Q50.94-9.66 52.16-8.22L52.16-8.22L52.16-8.22Q53.38-6.78 56.06-6.78L56.06-6.78L56.06-6.78Q59.78-6.78 62.72-9.86L62.72-9.86L62.72-9.86Q63.55-10.82 64-11.90L64-11.90L64-11.90Q66.43-10.62 66.43-7.10L66.43-7.10L66.43-7.10Q66.43-3.52 62.46-1.15L62.46-1.15L62.46-1.15Q58.37 1.28 51.84 1.28L51.84 1.28L51.84 1.28Q38.85 1.28 38.85-12.48L38.85-12.48L38.85-12.48Q38.85-22.53 44.54-28.29L44.54-28.29L44.54-28.29Q50.05-33.92 60.16-33.92L60.16-33.92L60.16-33.92Q70.27-33.92 70.27-26.62ZM77.12-31.17L77.12-31.17L77.12-31.17Q74.94-32.83 74.94-36.38L74.94-36.38L74.94-36.38Q74.94-39.94 77.28-41.79L77.28-41.79L77.28-41.79Q79.62-43.65 83.65-43.65L83.65-43.65L83.65-43.65Q86.21-43.65 92.29-42.75L92.29-42.75L96.64-42.11L96.64-42.11Q98.82-41.86 101.09-41.86L101.09-41.86L101.09-41.86Q103.36-41.86 104.90-42.82L104.90-42.82L104.90-42.82Q107.20-40.77 107.20-37.82L107.20-37.82L107.20-37.82Q107.20-34.88 104.58-32.77L104.58-32.77L104.58-32.77Q101.89-30.53 98.43-30.53L98.43-30.53L98.43-30.53Q96.77-30.53 94.08-30.98L94.08-30.98L94.08-30.98Q90.94-21.12 90.94-14.27L90.94-14.27L90.94-14.27Q90.94-7.42 94.40-3.84L94.40-3.84L94.40-3.84Q92.80-0.96 90.43 0.16L90.43 0.16L90.43 0.16Q88.06 1.28 84.51 1.28L84.51 1.28L84.51 1.28Q80.96 1.28 78.75-0.67L78.75-0.67L78.75-0.67Q76.54-2.62 76.54-6.66L76.54-6.66L76.54-6.66Q76.54-11.33 79.10-19.01L79.10-19.01L79.10-19.01Q81.66-26.62 85.50-32.45L85.50-32.45L85.50-32.45Q83.65-32.64 81.73-32.64L81.73-32.64L81.73-32.64Q77.76-32.64 77.12-31.17ZM129.02-4.80L129.02-4.80L129.02-4.80Q129.02-9.28 130.82-18.24L130.82-18.24L121.34-18.24L117.82 0L104.45 0L112.58-42.24L126.08-42.24L122.37-23.36L131.84-23.36L135.36-42.24L148.86-42.24L148.86-42.24Q147.97-37.50 146.82-32.19L146.82-32.19L144.64-21.76L144.64-21.76Q142.21-9.60 142.21-4.29L142.21-4.29L142.21-4.29Q142.21-2.11 142.91-0.90L142.91-0.90L142.91-0.90Q139.71 1.28 135.97 1.28L135.97 1.28L135.97 1.28Q132.22 1.28 130.62-0.51L130.62-0.51L130.62-0.51Q129.02-2.30 129.02-4.80Z" fill="#eb6c6c"></path></g></g><style>text {
  font-size: 25px;
  font-family: Arial Black;
  dominant-baseline: central;
  text-anchor: middle;
}</style></svg>
